<?xml version="1.0" standalone="no"?>
<svg viewBox="0 0 200 200" xmlns="http://www.w3.org/2000/svg">
  <path fill="#000000" d="M35.1,-64C38.1,-52.7,28,-30.4,29.2,-16.6C30.4,-2.8,42.9,2.6,45.4,8.7C47.9,14.7,40.2,21.5,35.5,35.7C30.8,49.9,29.1,71.5,21.2,75.1C13.3,78.8,-0.7,64.5,-17,59.1C-33.2,53.7,-51.7,57.3,-63.3,50.9C-74.9,44.6,-79.6,28.4,-69.3,17.5C-59.1,6.7,-33.9,1.4,-27.2,-12C-20.5,-25.4,-32.1,-46.8,-30.7,-58.8C-29.2,-70.7,-14.6,-73.3,0.7,-74.4C16.1,-75.6,32.1,-75.3,35.1,-64Z" transform="translate(100 100)" />
</svg>
